<svg xmlns="http://www.w3.org/2000/svg" viewBox="0 0 66 66"><path d="M13.5 32.619a2 2 0 0 0-2-2h-9a2 2 0 0 0 0 4h9a2 2 0 0 0 2-2zM63.5 30.619h-8a2 2 0 0 0 0 4h8a2 2 0 0 0 0-4zM35 64v-9a2 2 0 0 0-4 0v9a2 2 0 0 0 4 0zM31 2v9a2 2 0 0 0 4 0V2a2 2 0 0 0-4 0zM19.592 49.918a2 2 0 1 0-2.828-2.828l-5.844 5.844a2 2 0 1 0 2.828 2.828l5.844-5.844zM57.252 12.258a2 2 0 1 0-2.828-2.828l-5.844 5.844a2 2 0 1 0 2.828 2.828l5.844-5.844zM50.76 47.09a2 2 0 1 0-2.828 2.828l5.842 5.844c.391.391.902.586 1.414.586s1.023-.195 1.414-.586a2 2 0 0 0 0-2.828L50.76 47.09zM18.943 15.273L13.1 9.43a2 2 0 1 0-2.828 2.828l5.844 5.844c.391.391.902.586 1.414.586s1.023-.195 1.414-.586a2 2 0 0 0-.001-2.829zM33.799 15.303c-9.478 0-17.188 7.711-17.188 17.189s7.711 17.189 17.188 17.189c9.479 0 17.189-7.711 17.189-17.189s-7.711-17.189-17.189-17.189zm0 30.378c-7.272 0-13.188-5.917-13.188-13.189s5.916-13.189 13.188-13.189 13.189 5.917 13.189 13.189-5.917 13.189-13.189 13.189z"/></svg>