<svg xmlns="http://www.w3.org/2000/svg" viewBox="0 0 43.418 43.418"><path d="M8.02 21.76c0 7.583 6.169 13.752 13.751 13.752 7.583 0 13.752-6.169 13.752-13.752S29.354 8.008 21.771 8.008c-7.582 0-13.751 6.169-13.751 13.752zm13.751-9.752c5.377 0 9.752 4.375 9.752 9.752s-4.375 9.752-9.752 9.752-9.751-4.375-9.751-9.752 4.374-9.752 9.751-9.752z"/><circle cx="21.709" cy="2.71" r="2.709"/><circle cx="21.708" cy="40.709" r="2.708"/><circle cx="2.709" cy="21.709" r="2.709"/><circle cx="40.709" cy="21.71" r="2.709"/><circle cx="8.273" cy="8.275" r="2.709"/><circle cx="35.143" cy="35.144" r="2.708"/><circle cx="8.274" cy="35.144" r="2.709"/><circle cx="35.144" cy="8.274" r="2.709"/></svg>